<svg width="20" height="20" viewBox="0 0 20 20" fill="none" xmlns="http://www.w3.org/2000/svg"><path d="M13.805 18.333h.023c.44 0 .856-.174 1.171-.489l2.26-2.26a.832.832 0 000-1.178l-3.333-3.333a.832.832 0 00-1.178 0l-1.33 1.327c-.616-.183-1.765-.6-2.493-1.328-.729-.729-1.145-1.878-1.329-2.494L8.925 7.25a.832.832 0 000-1.178L5.592 2.739a.858.858 0 00-1.178 0L2.155 5a1.665 1.665 0 00-.488 1.196c.019 1.187.333 5.308 3.581 8.557 3.249 3.248 7.37 3.561 8.557 3.58zm-8.8-13.826l2.154 2.155-1.077 1.077a.83.83 0 00-.226.76c.02.096.509 2.369 1.892 3.752 1.384 1.383 3.656 1.872 3.752 1.892a.829.829 0 00.76-.225l1.078-1.078 2.155 2.155-1.672 1.67c-1.04-.017-4.599-.296-7.394-3.092-2.805-2.805-3.077-6.376-3.094-7.395l1.671-1.671zm11.66 4.659h1.668c0-4.275-3.228-7.5-7.509-7.5v1.667c3.385 0 5.842 2.453 5.842 5.833z" fill="#0D614E"/><path d="M10.832 6.667c1.753 0 2.5.747 2.5 2.5H15C15 6.479 13.52 5 10.832 5v1.667z" fill="#0D614E"/></svg>