<svg width="20" height="20" viewBox="0 0 20 20" fill="none" xmlns="http://www.w3.org/2000/svg"><path d="M13.805 18.332h.023c.44 0 .856-.173 1.17-.488l2.26-2.26a.832.832 0 000-1.178l-3.333-3.334a.832.832 0 00-1.178 0l-1.328 1.329c-.616-.184-1.765-.6-2.494-1.329-.728-.728-1.145-1.877-1.328-2.493l1.328-1.328a.832.832 0 000-1.179L5.592 2.74a.858.858 0 00-1.178 0L2.154 5a1.665 1.665 0 00-.488 1.196c.02 1.187.334 5.308 3.582 8.557 3.248 3.248 7.37 3.561 8.557 3.58zM5.004 4.508l2.155 2.155L6.08 7.739a.83.83 0 00-.226.76c.02.096.51 2.368 1.893 3.752 1.383 1.383 3.656 1.872 3.751 1.892a.829.829 0 00.76-.226l1.078-1.077 2.155 2.155-1.672 1.67c-1.04-.017-4.598-.296-7.394-3.092-2.805-2.806-3.076-6.376-3.093-7.396l1.67-1.67zm11.661 4.659h1.667c0-4.275-3.228-7.5-7.508-7.5v1.667c3.385 0 5.841 2.453 5.841 5.833z" fill="#fff"/><path d="M10.832 6.667c1.752 0 2.5.747 2.5 2.5h1.667c0-2.688-1.48-4.167-4.167-4.167v1.667z" fill="#fff"/></svg>