<svg width="390" height="587" viewBox="0 0 390 587" fill="none" xmlns="http://www.w3.org/2000/svg"><g opacity=".5" fill-rule="evenodd" clip-rule="evenodd" fill="#0D614E"><path opacity=".08" d="M220.907 760.481C404.07 858.662 617.698 790.995 702.634 623.6c84.936-167.395 16.653-386.176-166.51-484.357-183.163-98.181-396.791-30.514-481.727 136.881C-30.54 443.519 37.743 662.3 220.907 760.481zm-40.469 79.758C402.3 959.164 670.837 880.795 780.233 665.195c109.395-215.599 18.223-486.785-203.64-605.71C354.731-59.44 86.193 18.93-23.202 234.53c-109.395 215.599-18.223 486.785 203.64 605.71z"/><path opacity=".08" d="M247.784 707.51c148.197 79.438 325.42 26.298 397.059-114.89 71.639-141.187 12.601-320.97-135.596-400.409-148.197-79.438-325.42-26.298-397.059 114.89-71.639 141.187-12.601 320.97 135.596 400.409zm-10.792 21.268c158.517 84.971 350.383 28.977 428.544-125.065 78.161-154.043 13.02-347.8-145.497-432.77-158.517-84.97-350.383-28.977-428.544 125.065-78.16 154.043-13.02 347.8 145.497 432.77z"/></g></svg>