<svg width="1070" height="927" viewBox="0 0 1070 927" fill="none" xmlns="http://www.w3.org/2000/svg"><g opacity=".5" fill-rule="evenodd" clip-rule="evenodd" fill="#0D614E"><path opacity=".08" d="M512.851 1311c316.38 169.4 685.379 52.65 832.089-236.18 146.71-288.829 28.77-666.318-287.61-835.723-316.382-169.404-685.382-52.648-832.094 236.179C78.524 764.103 196.47 1141.59 512.851 1311zm-69.904 137.61c383.226 205.2 847.073 69.98 1036.033-302.02 188.96-372.002 31.48-839.913-351.75-1045.109C744.006-103.715 280.159 31.506 91.199 403.506c-188.96 372-31.477 839.914 351.748 1045.104z"/><path opacity=".08" d="M559.277 1219.6c255.983 137.06 562.103 45.37 685.843-198.23 123.74-243.613 21.77-553.815-234.21-690.88-255.988-137.065-562.107-45.375-685.849 198.233-123.743 243.608-21.767 553.807 234.216 690.877zm-18.641 36.7c273.808 146.61 605.224 49.99 740.224-215.8 135.01-265.784 22.49-600.098-251.31-746.707-273.812-146.61-605.224-49.997-740.232 215.791-135.009 265.788-22.49 600.106 251.318 746.716z"/></g></svg>