<svg width="126" height="125" viewBox="0 0 126 125" fill="none" xmlns="http://www.w3.org/2000/svg"><g clip-path="url(#clip0_121_2144)" fill="#0D614E"><path d="M76.313 46.265h-.008c-.65 0-1.275.26-1.733.721L60.565 61.103l-5.243-5.321a2.442 2.442 0 00-1.723-.728h-.016c-.643 0-1.26.253-1.717.705l-9.382 9.278a2.441 2.441 0 103.434 3.471l7.642-7.557 5.26 5.338a2.441 2.441 0 001.734.727h.005c.65 0 1.274-.26 1.733-.721l14-14.11 3.762 3.844a2.441 2.441 0 003.49-3.415l-5.494-5.615a2.443 2.443 0 00-1.737-.734z"/><path d="M91.809 60.791a2.441 2.441 0 002.441-2.441V38.696a2.441 2.441 0 00-2.441-2.441H65.44V33.69a2.441 2.441 0 10-4.882 0v2.564H34.19a2.441 2.441 0 00-2.441 2.441V70.68c0 5.385 4.38 9.765 9.766 9.765h19.043v8.423h-7.325a2.441 2.441 0 100 4.883h19.41a2.441 2.441 0 100-4.883H65.44v-8.423h19.043c5.385 0 9.766-4.38 9.766-9.765a2.441 2.441 0 10-4.883 0 4.888 4.888 0 01-4.883 4.882H41.516a4.888 4.888 0 01-4.883-4.882V41.138h52.734V58.35a2.441 2.441 0 002.442 2.441z"/></g><defs><clipPath id="clip0_121_2144"><path fill="#fff" transform="translate(31.75 31.25)" d="M0 0h62.5v62.5H0z"/></clipPath></defs></svg>